<svg width="22" height="20" viewBox="0 0 22 20" fill="none" xmlns="http://www.w3.org/2000/svg">
	<path fill-rule="evenodd" 
		clip-rule="evenodd" 
		d="M15.2148 0.792893C14.8243 0.402369 14.1911 0.402369 13.8006 0.792893L0.300584 14.2929C0.113047 14.4804 0.00769043 14.7348 0.00769043 15V19C0.00769043 19.5523 0.455406 20 1.00769 20H5.00769C5.27291 20 5.52726 19.8946 5.7148 19.7071L19.2148 6.20711C19.6053 5.81658 19.6053 5.18342 19.2148 4.79289L15.2148 0.792893ZM2.00769 15.4142L11.036 6.38591L13.6218 8.9717L4.59348 18H2.00769V15.4142ZM15.036 7.55749L12.4502 4.9717L14.5077 2.91421L17.0935 5.5L15.036 7.55749ZM20.0155 20H11.0155C10.4632 20 10.0155 19.5523 10.0155 19C10.0155 18.4477 10.4632 18 11.0155 18H20.0155C20.5678 18 21.0155 18.4477 21.0155 19C21.0155 19.5523 20.5678 20 20.0155 20Z" 
		fill="#9081bb"/>
</svg>
